<?xml version="1.0" encoding="UTF-8" standalone="no"?>
<!DOCTYPE svg PUBLIC "-//W3C//DTD SVG 1.1//EN" "http://www.w3.org/Graphics/SVG/1.1/DTD/svg11.dtd">
<svg width="100%" height="100%" viewBox="0 0 402 290" version="1.1" xmlns="http://www.w3.org/2000/svg" xmlns:xlink="http://www.w3.org/1999/xlink" xml:space="preserve" xmlns:serif="http://www.serif.com/" style="fill-rule:evenodd;clip-rule:evenodd;">
    <g transform="matrix(1,0,0,1,-149.69,-174.586)">
        <path d="M345.357,176.648C194.294,184.253 153.407,268.705 151.786,321.291C149.945,380.997 223.527,458.788 344.643,462.362L345,448.076L359.286,447.719L358.929,462.005C358.929,462.005 552.694,462.002 548.571,316.648C545.268,199.619 374.243,175.219 359.286,177.005L359.286,189.505L345.357,189.862L345.357,176.648Z" style="stroke:black;stroke-width:1px;"/>
        <path d="M358.571,410.219L359.643,228.076L346.786,227.719L346.786,215.934L358.571,215.576L358.929,202.005L346.429,201.648L346.071,190.219C234.225,189.882 163.389,259.363 164.286,319.862C165.771,419.475 296.905,446.648 345,448.434L345.357,436.648L357.5,435.934L357.5,423.791L346.429,423.434L346.429,410.576L358.571,410.219Z" style="fill:rgb(0,0,206);"/>
        <path d="M345,205.219C268.991,192.886 208.127,244.936 195,273.434C192.456,272.996 187.772,272.559 175,267.362L168.571,283.434C167.626,292.316 171.698,302.202 175.357,312.005C174.099,331.693 178.94,344.339 186.786,360.934C185.647,361.014 183.45,364.239 184.643,367.005C187.052,372.593 188.767,377.7 202.5,378.434C205.553,399.1 230.684,403.363 247.143,403.434C280.443,403.578 283.768,389.751 315,390.398C341.664,390.951 360.064,396.331 393.036,406.648L380.357,256.291C360.84,244.922 360.126,229.366 324.643,233.076C323.143,229.59 336.176,213.968 345,205.219Z" style="stroke:black;stroke-width:1px;"/>
        <path d="M220.357,345.934C232.437,344.673 217.57,281.933 251.071,278.791C289.102,275.223 288.723,337.219 279.643,347.005C258.365,369.937 226.31,367.644 201.429,361.648L192.857,359.148C179.643,335.378 182.526,312.386 187.5,314.505C202.227,320.781 203.682,347.674 220.357,345.934Z" style="fill:white;"/>
        <path d="M201.518,327.005C199.539,342.895 206.892,357.879 212.321,357.809C218.242,357.732 215.073,343.879 214.732,339.862L201.518,327.005Z"/>
        <path d="M275.714,359.148C277.114,351.068 288.146,357.439 294.643,357.005C301.378,351.601 302.475,343.804 306.071,338.791C298.393,332.422 298.508,325.901 299.643,318.076C308.132,259.523 378.608,214.382 465.714,218.791C518.088,243.48 528.924,281.95 534.286,301.291C551.299,362.657 505.654,402.82 491.429,400.576C500.236,383.933 503.322,366.146 497.857,346.648C488.752,413.792 450.474,445.028 437.5,432.719C456.022,405.276 470.869,361.379 453.571,349.505C455.879,357.075 433.158,460.061 372.857,448.791C392.615,427.598 412.262,399.199 416.071,366.291C412.486,397.585 264.706,383.554 275.714,359.148Z" style="fill:rgb(255,0,0);stroke:rgb(255,0,0);stroke-width:1px;"/>
        <path d="M329.643,335.219C337.69,303.236 365.44,287.247 393.571,288.434C411.932,312.381 379.727,361.367 329.643,335.219Z" style="fill:white;stroke:black;stroke-width:3.4px;"/>
        <path d="M373.214,295.219C381.323,292.157 389.214,324.697 380.357,330.219C372.008,335.425 365.72,298.05 373.214,295.219Z"/>
        <path d="M255.357,302.362C247.185,305.487 259.662,345.217 268.214,340.576C277.043,335.786 263.267,299.338 255.357,302.362Z"/>
    </g>
</svg>