<?xml version="1.0" encoding="UTF-8" standalone="no"?>
<!DOCTYPE svg PUBLIC "-//W3C//DTD SVG 1.1//EN" "http://www.w3.org/Graphics/SVG/1.1/DTD/svg11.dtd">
<svg width="100%" height="100%" viewBox="0 0 216 172" version="1.1" xmlns="http://www.w3.org/2000/svg" xmlns:xlink="http://www.w3.org/1999/xlink" xml:space="preserve" xmlns:serif="http://www.serif.com/" style="fill-rule:evenodd;clip-rule:evenodd;stroke-linejoin:round;stroke-miterlimit:2;">
    <path d="M215.507,101.98C215.507,101.98 211.638,83.939 192.308,68.474C174.265,55.585 154.933,56.874 154.933,56.874C154.933,56.874 160.089,46.563 174.265,38.831C187.154,32.386 205.195,31.101 205.195,31.101C205.195,31.101 193.597,16.923 170.4,7.902C142.046,-2.409 118.849,-2.409 90.496,6.613C59.564,16.924 37.656,41.41 37.656,41.41C37.656,41.41 6.726,32.387 1.57,40.119C-4.873,47.855 10.593,77.496 10.593,77.496C10.593,77.496 6.726,86.517 8.013,103.269C9.304,121.312 19.615,134.203 19.615,134.203C14.459,135.488 9.304,138.066 9.304,141.933C9.304,145.8 17.036,149.667 26.058,149.667L29.925,149.667C38.945,158.687 51.833,170.284 71.165,171.573C95.651,172.862 111.116,163.843 121.427,161.264C133.025,157.397 149.779,157.397 160.089,157.397C191.019,161.264 203.905,168.999 203.905,168.999C203.905,168.999 205.194,154.819 192.307,135.487C181.996,121.311 161.375,116.159 161.375,116.159C161.375,116.159 171.686,107.136 184.574,104.557C201.33,100.695 215.507,101.98 215.507,101.98Z" style="fill:rgb(0,0,206);"/>
    <g transform="matrix(1,0,0,1,-170.089,-226.291)">
        <path d="M220.357,345.934C232.437,344.673 217.57,281.933 251.071,278.791C289.102,275.223 288.723,337.219 279.643,347.005C258.365,369.937 226.31,367.644 201.429,361.648L192.857,359.148C179.643,335.378 182.526,312.386 187.5,314.505C202.227,320.781 203.682,347.674 220.357,345.934Z" style="fill:white;"/>
        <path d="M220.357,345.934C232.437,344.673 217.57,281.933 251.071,278.791C289.102,275.223 288.723,337.219 279.643,347.005C258.365,369.937 226.31,367.644 201.429,361.648L192.857,359.148C179.643,335.378 182.526,312.386 187.5,314.505C202.227,320.781 203.682,347.674 220.357,345.934ZM201.941,359.714C226.188,365.551 257.448,367.984 278.177,345.645C279.82,343.874 281.039,340.173 281.837,335.475C283.125,327.899 283.126,317.814 281.069,308.313C277.76,293.031 269.113,279.107 251.258,280.782C242.053,281.646 236.895,287.493 233.802,295.187C230.494,303.414 229.488,313.697 228.732,322.825C227.987,331.822 227.422,339.75 225.482,343.883C224.321,346.358 222.659,347.705 220.565,347.923L220.565,347.923C211.393,348.88 206.192,342.259 201.474,334.24C199.363,330.651 197.317,326.813 194.887,323.488C192.703,320.5 190.217,317.926 187.003,316.471C186.836,316.716 186.522,317.211 186.349,317.677C186.186,318.116 186.042,318.614 185.916,319.167C184.279,326.329 185.633,341.646 194.212,357.46L201.941,359.714Z"/>
    </g>
    <path d="M31.17,103.583C35.196,110.567 38.963,117.485 45.4,119.277C46.07,124.72 46.358,131.464 42.232,131.518C37.131,131.583 30.332,118.362 31.17,103.583Z"/>
    <g transform="matrix(1,0,0,1,-170.089,-226.291)">
        <path d="M255.357,302.362C247.185,305.487 259.662,345.217 268.214,340.576C277.043,335.786 263.267,299.338 255.357,302.362Z"/>
    </g>
</svg>